<?xml version="1.0" standalone="no"?>
<!DOCTYPE svg PUBLIC "-//W3C//DTD SVG 20010904//EN"
 "http://www.w3.org/TR/2001/REC-SVG-20010904/DTD/svg10.dtd">
<svg version="1.0" xmlns="http://www.w3.org/2000/svg"
 width="256.000000pt" height="256.000000pt" viewBox="0 0 256.000000 256.000000"
 preserveAspectRatio="xMidYMid meet">
<metadata>
Created by potrace 1.11, written by Peter Selinger 2001-2013
</metadata>
<g transform="translate(0.000000,256.000000) scale(0.100000,-0.100000)"
fill="#000000" stroke="none">
<path d="M1109 2555 c-9 -37 -19 -81 -24 -110 -2 -16 -9 -55 -16 -85 -6 -30
-13 -71 -16 -90 -8 -56 -17 -65 -110 -103 -163 -68 -132 -72 -289 37 -76 53
-144 96 -151 96 -15 0 -243 -230 -243 -245 0 -7 9 -24 20 -38 11 -14 20 -30
20 -35 0 -6 4 -12 8 -14 5 -1 38 -47 75 -100 l66 -97 -46 -113 c-25 -62 -53
-120 -62 -129 -10 -10 -64 -25 -141 -39 -69 -12 -142 -26 -162 -31 l-38 -10 0
-170 c0 -199 -17 -176 160 -209 63 -11 128 -23 144 -26 22 -5 32 -16 47 -53
11 -25 24 -54 29 -63 6 -10 10 -22 10 -28 0 -6 10 -31 21 -55 24 -51 27 -87
10 -107 -31 -34 -161 -230 -161 -241 0 -7 54 -66 120 -132 l119 -119 128 86
c70 47 133 88 140 92 6 3 37 -8 68 -25 31 -17 62 -28 69 -26 12 5 236 530 236
555 0 6 -20 25 -44 41 -192 132 -226 380 -75 546 71 77 139 108 248 113 79 4
92 2 152 -26 85 -38 138 -86 180 -164 31 -59 33 -70 34 -158 0 -83 -3 -102
-27 -154 -29 -60 -90 -128 -145 -161 -18 -10 -34 -24 -36 -29 -6 -16 224 -566
236 -566 6 0 38 14 72 31 l61 31 131 -91 c72 -50 134 -91 138 -91 9 0 245 239
245 249 0 5 -8 19 -18 32 -33 43 -154 222 -159 236 -3 7 18 71 47 142 l53 129
146 27 c80 15 154 29 164 32 16 4 17 19 15 181 l-3 177 -60 12 c-33 7 -71 14
-85 16 -194 34 -183 30 -203 75 -66 152 -87 207 -82 220 3 7 45 72 95 143 49
70 90 132 90 136 0 4 -55 63 -122 130 l-121 122 -148 -101 -148 -101 -108 43
c-59 24 -115 49 -124 57 -10 9 -23 50 -34 107 -9 52 -18 100 -19 107 -2 8 -6
32 -10 54 -17 95 6 85 -191 85 -96 0 -176 -2 -176 -5z"/>
</g>
</svg>
